<svg width="222" height="221" viewBox="0 0 222 221" fill="none" xmlns="http://www.w3.org/2000/svg">
<g clip-path="url(#clip0_2324_170701)">
<mask id="mask0_2324_170701" style="mask-type:luminance" maskUnits="userSpaceOnUse" x="58" y="30" width="120" height="168">
<path d="M62.9102 132.246L58.4902 157.352C57.9598 160.004 59.551 162.656 62.0262 163.717L142.293 196.601C145.653 198.016 149.542 195.894 150.249 192.181L177.3 37.1279C177.83 33.5919 175.178 30.2327 171.465 30.2327L91.375 31.4703L85.187 31.8239C82.3582 31.8239 80.0598 33.9455 79.5294 36.5975L78.8222 40.6639L62.9102 132.246Z" fill="white"/>
</mask>
<g mask="url(#mask0_2324_170701)">
<path d="M127.089 112.268L147.067 276.869L110.116 275.277L106.58 120.577L83.2424 264.139L35.86 257.421L85.0104 117.041C91.552 96.3559 100.922 92.9967 108.525 92.9967C119.133 92.8199 125.851 101.129 127.089 112.268Z" fill="white" stroke="#222222" stroke-width="2.86187" stroke-linecap="round" stroke-linejoin="round"/>
</g>
<path d="M62.9102 132.246L58.4902 157.352C57.9598 160.004 59.551 162.656 62.0262 163.717L142.293 196.601C145.653 198.016 149.542 195.894 150.249 192.181L177.3 37.1279C177.83 33.5919 175.178 30.2327 171.465 30.2327L91.375 31.4703L85.187 31.8239C82.3582 31.8239 80.0598 33.9455 79.5294 36.5975L78.8222 40.6639L62.9102 132.246Z" stroke="#C6C6C6" stroke-width="2.86187" stroke-miterlimit="10"/>
<path d="M154.846 50.3879L159.266 46.8519L164.57 47.0287L168.106 45.2607L181.366 49.3271L192.682 45.2607L196.925 70.1895L184.018 70.7199C184.018 70.7199 184.726 79.7367 183.134 84.5103C181.543 89.2839 174.118 92.8199 174.118 92.8199L163.156 90.1679L151.841 73.5487C151.841 73.5487 154.846 50.2111 154.846 50.3879Z" fill="white"/>
<path d="M217.843 169.42C224.83 148.798 221.423 129.006 210.233 125.215C199.044 121.423 184.308 135.068 177.32 155.691C170.333 176.313 173.74 196.105 184.93 199.896C196.119 203.688 210.855 190.043 217.843 169.42Z" fill="#F8894B"/>
<path d="M107.995 70.5433C107.111 74.7865 105.166 78.8529 102.337 82.2121C104.105 85.2177 107.464 86.9857 111 86.6321H111.177C115.243 86.1017 118.426 82.9193 118.779 78.8529C118.956 77.9689 118.956 77.0849 118.956 76.2009C118.956 74.7865 118.779 73.1953 118.426 71.7809C118.072 70.5433 117.365 69.1289 116.304 68.2449C114.183 70.1897 111 71.2505 107.995 70.5433Z" fill="white" stroke="#222222" stroke-width="2.86187" stroke-linecap="round" stroke-linejoin="round"/>
<path d="M102.337 84.1569L101.276 82.5657C100.746 81.5049 100.392 80.6209 100.215 79.3833C99.8617 76.7313 99.3313 73.1953 100.392 70.1897C100.922 68.5985 102.16 67.1841 103.574 66.1233C104.458 65.5929 105.519 65.0625 106.403 64.7089C106.934 64.5321 107.464 64.3553 107.994 64.3553L108.878 64.1785C109.232 64.1785 109.586 64.1785 110.116 64.1785C111.884 64.1785 113.652 64.7089 115.243 65.9465C115.774 66.3001 116.481 67.0073 117.011 67.5377L117.718 68.2449L117.188 68.9521C114.89 71.0737 111.707 71.9577 108.878 71.7809C107.818 75.8473 105.873 79.5601 103.221 82.9193L102.337 84.1569Z" fill="#222222"/>
<path d="M151.31 74.6096L176.946 73.5488" stroke="#222222" stroke-width="2.86187" stroke-miterlimit="10"/>
<path d="M127.442 65.2393L115.95 69.4825C114.359 70.0129 113.298 71.9577 113.829 73.5489C114.182 74.9633 115.597 76.0241 117.188 76.0241L124.967 75.6705" fill="white"/>
<path d="M127.442 65.2393L115.95 69.4825C114.359 70.0129 113.298 71.9577 113.829 73.5489C114.182 74.9633 115.597 76.0241 117.188 76.0241L124.967 75.6705" stroke="#222222" stroke-width="2.86187" stroke-miterlimit="10"/>
<path d="M174.117 48.0896L155.907 54.808" stroke="#222222" stroke-width="2.86187" stroke-miterlimit="10"/>
<path d="M137.52 56.0457C133.63 55.3385 130.624 58.1673 128.503 62.4105C126.028 67.3609 125.32 72.8417 124.79 78.3225C124.436 82.7425 124.436 87.3393 126.558 91.2289C129.387 96.3561 133.984 97.7705 139.641 96.7097C148.304 94.9417 150.426 82.9193 151.133 74.6097C151.31 71.0737 153.078 60.1121 153.608 58.1673C154.492 55.3385 156.26 54.4545 158.736 53.2169C156.968 51.6257 154.846 49.8577 152.371 50.0345C146.89 50.3881 143.708 55.5153 142.647 60.4657C141.94 64.0017 141.94 65.9465 141.586 69.6593" fill="white"/>
<path d="M137.52 56.0457C133.63 55.3385 130.624 58.1673 128.503 62.4105C126.028 67.3609 125.32 72.8417 124.79 78.3225C124.436 82.7425 124.436 87.3393 126.558 91.2289C129.387 96.3561 133.984 97.7705 139.641 96.7097C148.304 94.9417 150.426 82.9193 151.133 74.6097C151.31 71.0737 153.078 60.1121 153.608 58.1673C154.492 55.3385 156.26 54.4545 158.736 53.2169C156.968 51.6257 154.846 49.8577 152.371 50.0345C146.89 50.3881 143.708 55.5153 142.647 60.4657C141.94 64.0017 141.94 65.9465 141.586 69.6593" stroke="#222222" stroke-width="2.86187" stroke-linecap="round" stroke-linejoin="round"/>
<path d="M181.366 49.3271L194.272 44.5535L196.748 68.9519" fill="white"/>
<path d="M181.366 49.3271L194.272 44.5535L196.748 68.9519" stroke="#222222" stroke-width="2.86187" stroke-linecap="round" stroke-linejoin="round"/>
<path d="M196.925 70.1895H183.665" stroke="#222222" stroke-width="2.86187" stroke-linecap="round" stroke-linejoin="round"/>
<path d="M153.255 74.4328C155.023 79.0296 157.321 84.3336 160.68 88.0464C164.04 91.7592 169.167 94.0576 173.94 92.82C179.244 91.4056 182.604 85.748 183.664 80.2672C184.195 77.0848 184.372 73.9024 183.841 70.72" stroke="#222222" stroke-width="2.86187" stroke-miterlimit="10"/>
<path d="M175.885 47.2056C174.824 46.4984 173.764 45.7912 172.526 45.2608C170.404 44.5536 167.929 44.9072 165.984 46.1448C164.04 47.3824 162.802 49.504 162.802 51.8024" stroke="#222222" stroke-width="2.86187" stroke-miterlimit="10"/>
<path d="M154.846 50.3879C156.084 48.9735 157.498 47.5591 159.266 46.8519C161.034 46.1447 163.156 46.3215 164.57 47.5591" stroke="#222222" stroke-width="2.86187" stroke-miterlimit="10"/>
<path d="M176.946 73.549C181.731 73.549 185.609 67.6914 185.609 60.4658C185.609 53.2401 181.731 47.3826 176.946 47.3826C172.162 47.3826 168.283 53.2401 168.283 60.4658C168.283 67.6914 172.162 73.549 176.946 73.549Z" stroke="#222222" stroke-width="2.86187" stroke-miterlimit="10"/>
<path d="M196.925 70.1896C201.71 70.1896 205.588 64.332 205.588 57.1064C205.588 49.8807 201.71 44.0232 196.925 44.0232C192.141 44.0232 188.262 49.8807 188.262 57.1064C188.262 64.332 192.141 70.1896 196.925 70.1896Z" fill="white" stroke="#222222" stroke-width="2.86187" stroke-linecap="round" stroke-linejoin="round"/>
<path d="M35.6955 128.478C38.7975 119.323 33.6654 109.31 24.2326 106.114C14.7998 102.918 4.63827 107.749 1.53621 116.904C-1.56585 126.06 3.56624 136.072 12.9991 139.268C22.4319 142.464 32.5934 137.634 35.6955 128.478Z" fill="#FBAA75"/>
<path d="M140.879 68.7753L135.398 65.7697L139.995 51.9793L146.183 51.8025C146.183 51.8025 141.586 53.9241 140.879 68.7753Z" fill="white"/>
<path d="M147.067 52.156C146.006 51.6256 144.769 51.272 143.531 51.272C141.409 51.272 139.111 52.8632 138.05 54.6312C136.989 56.3992 135.929 62.0568 134.691 70.0128" stroke="#222222" stroke-width="2.86187" stroke-linecap="round" stroke-linejoin="round"/>
<path d="M78.469 91.7592C75.6402 91.7592 72.9882 90.8752 70.3362 89.284C66.6234 86.9856 63.9714 83.096 62.9106 78.4992C62.9106 78.4992 62.557 76.908 62.3802 74.7864L62.2034 73.9024C61.4962 60.8192 70.3362 55.692 74.7562 55.3384C77.7618 55.1616 81.2978 56.0456 84.1266 57.8136C84.4802 55.1616 86.0714 52.6864 88.3698 51.272C91.1986 49.504 95.0882 49.3272 98.0938 51.0952C100.569 52.5096 102.337 54.9848 103.398 58.1672C104.282 60.8192 104.459 63.8248 104.635 66.4768L104.812 69.4824L102.691 67.3608C101.983 66.4768 100.746 66.1232 99.3314 65.9464C97.7402 65.9464 96.3258 66.4768 95.265 67.3608C93.497 68.952 93.1434 71.604 92.7898 74.6096C92.4362 78.8528 91.5522 87.6928 84.657 90.3448C82.7122 91.2288 80.5906 91.7592 78.469 91.7592Z" fill="#222222"/>
</g>
<defs>
<clipPath id="clip0_2324_170701">
<rect width="221" height="221" fill="white" transform="translate(0.5)"/>
</clipPath>
</defs>
</svg>
